<?xml version="1.0" encoding="UTF-8"?>
<svg version="1.1" xmlns="http://www.w3.org/2000/svg" width="67" height="67">
<path d="M0 0 C2.13088022 1.44156192 4.07827925 2.88117469 6.0625 4.5 C7.20250861 5.40442332 8.34314963 6.30805 9.484375 7.2109375 C10.06251953 7.67209961 10.64066406 8.13326172 11.23632812 8.60839844 C14.05581758 10.83307866 16.93267261 12.97936558 19.8125 15.125 C20.80894531 15.87007812 21.80539063 16.61515625 22.83203125 17.3828125 C23.90517578 18.18332031 23.90517578 18.18332031 25 19 C23.25148155 29.86863175 17.48049196 37.42302404 9 44 C6.97743548 45.66456538 4.95661182 47.3312482 2.9375 49 C1.29323184 50.33526303 -0.35203279 51.66930498 -2 53 C-5.44779086 51.49993609 -7.82360533 49.49590738 -10.5625 46.9375 C-17.09122568 40.95041675 -23.87584609 35.26856033 -31 30 C-30.00556851 22.4803102 -27.38727643 15.11744255 -21.6953125 9.87890625 C-19.19034247 8.12698796 -16.62818487 6.55949524 -14 5 C-11.69616822 3.33045102 -9.39750522 1.65445037 -7.10546875 -0.03125 C-4.21450254 -1.36141627 -2.98778183 -1.07025021 0 0 Z M-6 2 C-7.29588047 3.28231081 -7.29588047 3.28231081 -8.6875 5.0625 C-13.09148643 10.29282077 -17.99719566 14.99581797 -22.93237305 19.71899414 C-23.57086182 20.34281982 -24.20935059 20.96664551 -24.8671875 21.609375 C-25.44581543 22.16592773 -26.02444336 22.72248047 -26.62060547 23.29589844 C-28.34372992 25.17963548 -28.34372992 25.17963548 -29 29 C-23.39 32.3 -17.78 35.6 -12 39 C-9.16163765 36.16163765 -9.10402148 32.96991577 -8.4921875 29.1484375 C-8.36184113 28.37440582 -8.23149475 27.60037415 -8.09719849 26.80288696 C-7.68223501 24.3281168 -7.27850115 21.85166225 -6.875 19.375 C-6.59578917 17.6977938 -6.3158503 16.02070861 -6.03515625 14.34375 C-5.34831211 10.23052386 -4.67153409 6.11575223 -4 2 C-4.66 2 -5.32 2 -6 2 Z " fill="#5D05EC" transform="translate(37,8)"/>
<path d="M0 0 C0.53367187 0.36351562 1.06734375 0.72703125 1.6171875 1.1015625 C3.20022255 2.16970034 4.79511822 3.22037061 6.3984375 4.2578125 C9 6 9 6 11.2265625 7.8046875 C16.7790389 11.94519395 20.7971978 12.34984129 27.4375 11.4375 C29.62088017 11.09715169 31.79652663 10.72971128 33.97167969 10.34033203 C36.82375068 9.86178281 39.68132373 9.60951435 42.5625 9.375 C43.43003906 9.30023438 44.29757813 9.22546875 45.19140625 9.1484375 C45.78824219 9.09945312 46.38507812 9.05046875 47 9 C43.09449051 13.02498971 38.96429692 16.68757326 34.6875 20.3125 C34.04232422 20.86228516 33.39714844 21.41207031 32.73242188 21.97851562 C31.15656558 23.32091173 29.57850879 24.66072394 28 26 C24.55220914 24.49993609 22.17639467 22.49590738 19.4375 19.9375 C12.90877432 13.95041675 6.12415391 8.26856033 -1 3 C-0.67 2.01 -0.34 1.02 0 0 Z " fill="#3B0497" transform="translate(7,35)"/>
<path d="M0 0 C3.89353765 1.74007485 7.24735236 4.2016621 10.6875 6.6875 C11.61199951 7.35144775 11.61199951 7.35144775 12.55517578 8.02880859 C17.46160729 11.56999447 22.27231836 15.22285753 27 19 C26.37954537 23.23322844 24.89476441 26.52290295 22.9375 30.3125 C22.11572266 31.91544922 22.11572266 31.91544922 21.27734375 33.55078125 C20.85582031 34.35902344 20.43429688 35.16726562 20 36 C17.46566931 32.80008751 15.47941864 29.44367108 13.49609375 25.87890625 C13.17214127 25.2971312 12.84818878 24.71535614 12.51441956 24.11595154 C11.83310317 22.89053082 11.15327383 21.66428228 10.47485352 20.43725586 C9.44143317 18.56960821 8.4017252 16.70556512 7.36132812 14.84179688 C6.69753549 13.64604485 6.0341117 12.45008799 5.37109375 11.25390625 C4.4728186 9.63464233 4.4728186 9.63464233 3.55639648 7.98266602 C2.18775914 5.35982015 1.03587988 2.76800688 0 0 Z " fill="#5306D4" transform="translate(35,8)"/>
<path d="M0 0 C0.53367187 0.36351562 1.06734375 0.72703125 1.6171875 1.1015625 C2.73480469 1.85566406 2.73480469 1.85566406 3.875 2.625 C5.10476563 3.45837891 5.10476563 3.45837891 6.359375 4.30859375 C8.94509452 6.01939666 8.94509452 6.01939666 11.578125 7.34765625 C18.57637971 11.02925344 22.71789845 15.74856985 26 23 C25.67 23.66 25.34 24.32 25 25 C24.33355469 24.38253906 23.66710937 23.76507813 22.98046875 23.12890625 C15.28167434 16.05462943 7.41141317 9.22561671 -1 3 C-0.67 2.01 -0.34 1.02 0 0 Z " fill="#4204AA" transform="translate(7,35)"/>
</svg>
