<?xml version="1.0" encoding="UTF-8"?>
<svg version="1.1" xmlns="http://www.w3.org/2000/svg" width="16" height="16">
<path d="M0 0 C3.36397083 0.60070908 5.56714867 1.56714867 8 4 C9.07387226 7.36479974 9.39177282 9.12427252 7.9375 12.375 C6 14 6 14 3 14.5 C-0 14 -0 14 -1.9375 12.375 C-3.34057059 9.23872457 -2.81887495 7.27549981 -2 4 C-1.01 4 -0.02 4 1 4 C0.67 2.68 0.34 1.36 0 0 Z " fill="#FD7506" transform="translate(5,1)"/>
<path d="M0 0 C1.32 0.66 2.64 1.32 4 2 C4 3.98 4 5.96 4 8 C2.35 8 0.7 8 -1 8 C-1.625 5.125 -1.625 5.125 -2 2 C-1.34 1.34 -0.68 0.68 0 0 Z " fill="#FC9E02" transform="translate(7,7)"/>
</svg>
